<svg version="1.0" xmlns="http://www.w3.org/2000/svg" viewBox="0 0 900.000000 639.000000"><g transform="translate(0.000000,639.000000) scale(0.100000,-0.100000)" stroke="none"> <path d="M0 6377 c0 -7 9 -37 21 -67 11 -30 24 -68 29 -85 5 -16 18 -55 30 -85 12 -30 25 -66 30 -80 5 -14 18 -50 30 -80 12 -30 25 -68 30 -85 5 -16 18 -55 30 -85 12 -30 25 -66 30 -80 5 -14 18 -50 30 -80 12 -30 25 -68 30 -85 5 -16 18 -55 30 -85 12 -30 25 -66 30 -80 5 -14 18 -50 30 -80 12 -30 25 -68 30 -85 5 -16 18 -55 30 -85 12 -30 25 -66 30 -80 5 -14 18 -50 30 -80 12 -30 25 -68 30 -85 5 -16 18 -55 30 -85 12 -30 25 -66 30 -80 5 -14 18 -50 30 -80 12 -30 25 -68 30 -85 5 -16 18 -55 30 -85 45 -118 52 -136 57 -160 3 -14 10 -30 15 -37 6 -7 14 -27 18 -45 5 -18 18 -58 30 -88 12 -30 25 -66 30 -80 5 -14 18 -50 30 -80 12 -30 25 -68 30 -85 5 -16 18 -55 30 -85 12 -30 25 -66 30 -80 5 -14 18 -50 30 -80 12 -30 25 -68 30 -85 5 -16 18 -55 30 -85 12 -30 25 -66 30 -80 5 -14 18 -50 30 -80 12 -30 25 -68 30 -85 5 -16 18 -55 30 -85 12 -30 25 -66 30 -80 5 -14 18 -50 30 -80 12 -30 25 -68 30 -85 5 -16 18 -55 30 -85 12 -30 25 -66 30 -80 5 -14 18 -50 30 -80 12 -30 25 -68 30 -85 5 -16 18 -55 30 -85 34 -88 49 -130 75 -205 13 -38 34 -95 45 -125 12 -30 25 -66 30 -80 5 -14 18 -50 30 -80 12 -30 25 -68 30 -85 5 -16 18 -55 30 -85 12 -30 24 -63 27 -73 3 -9 6 -17 7 -17 35 -5 524 -30 577 -30 61 0 79 -4 92 -18 10 -10 17 -24 17 -31 0 -7 6 -25 14 -39 8 -15 42 -94 76 -177 34 -82 68 -163 75 -180 7 -16 20 -47 29 -67 9 -21 23 -55 32 -75 9 -21 22 -51 29 -68 7 -16 41 -97 75 -180 34 -82 68 -163 75 -180 7 -16 20 -46 28 -65 8 -19 21 -51 29 -70 8 -19 22 -51 30 -70 9 -19 37 -87 63 -150 26 -63 53 -128 60 -145 7 -16 20 -47 29 -67 9 -21 22 -53 30 -70 8 -18 17 -43 21 -55 l6 -23 2970 0 c1973 0 2969 3 2969 10 0 6 -7 10 -15 10 -8 0 -18 15 -24 33 -5 17 -19 57 -31 87 -12 30 -26 69 -31 87 -5 18 -14 35 -19 38 -6 4 -10 15 -10 25 0 10 -6 31 -14 47 -8 15 -22 47 -30 71 -9 23 -23 60 -31 82 -8 22 -22 58 -30 80 -8 22 -22 59 -31 83 -8 23 -22 55 -30 70 -8 16 -14 35 -14 42 0 7 -6 26 -14 42 -8 15 -21 46 -29 68 -8 22 -22 59 -31 83 -9 23 -23 61 -32 85 -9 23 -23 60 -31 82 -9 22 -21 54 -28 70 -7 17 -20 48 -28 70 -8 22 -22 59 -31 83 -9 23 -23 61 -32 85 -21 55 -43 112 -61 162 -8 22 -21 54 -28 70 -13 31 -35 87 -59 153 -8 20 -21 56 -30 80 -9 23 -22 59 -30 80 -22 59 -47 124 -61 157 -7 17 -20 49 -29 73 -9 23 -23 60 -31 82 -8 22 -22 58 -30 80 -8 22 -22 59 -31 83 -9 23 -23 60 -31 82 -8 22 -21 54 -28 70 -12 30 -30 76 -60 155 -8 22 -22 58 -30 80 -8 22 -22 58 -30 80 -39 105 -48 127 -60 150 -7 14 -15 37 -19 51 -3 15 -14 30 -23 34 -10 5 -138 11 -284 15 -147 4 -271 10 -276 13 -9 6 -56 111 -90 202 -8 22 -21 54 -28 70 -7 17 -19 48 -28 70 -29 77 -50 130 -62 160 -7 17 -21 50 -30 75 -9 25 -23 59 -30 75 -7 17 -19 48 -28 70 -8 22 -29 76 -47 120 -18 44 -39 98 -47 120 -9 22 -21 54 -28 70 -7 17 -20 48 -28 70 -8 22 -29 76 -47 120 -18 44 -39 98 -47 120 -9 22 -21 54 -28 70 -7 17 -20 48 -28 70 -8 22 -29 76 -47 120 -18 44 -39 98 -47 120 -9 22 -21 54 -28 70 -7 17 -20 48 -28 70 -8 22 -29 76 -47 120 -18 44 -39 98 -47 120 -9 22 -21 54 -28 70 -7 17 -21 50 -30 75 -9 25 -23 59 -30 75 -7 17 -20 49 -29 73 -9 23 -23 61 -32 85 -9 23 -22 56 -29 72 -7 17 -21 50 -30 75 -9 25 -23 59 -30 75 -7 17 -20 49 -29 73 -9 23 -23 61 -32 85 -9 23 -22 56 -29 72 -7 17 -20 48 -28 70 -8 22 -30 77 -49 122 l-33 83 -2962 0 c-2382 0 -2963 -2 -2963 -13z"/> </g> </svg>